
<svg width="94px" height="94px" viewBox="0 0 94 94" version="1.1" xmlns="http://www.w3.org/2000/svg" xmlns:xlink="http://www.w3.org/1999/xlink">
	<!-- Generator: Sketch 48.2 (47327) - http://www.bohemiancoding.com/sketch -->
	<desc>Created with Sketch.</desc>
	<defs></defs>
	<g id="Page-1" stroke="none" stroke-width="1" fill="none" fill-rule="evenodd">
		<g id="Artboard" transform="translate(-387.000000, -144.000000)">
			<g id="craft-contact-form-extensions" transform="translate(387.000000, 144.000000)">
				<circle id="background" fill="#4DC0B5" cx="47" cy="47" r="47"></circle>
				<path d="M46.8966429,25.2525697 C46.6715404,25.26571 46.4553317,25.3450396 46.2751468,25.4806001 L40.5341233,29.7863669 L29.8345397,29.7863669 L29.8345397,30.9309943 L29.8345397,37.8077025 L25.7120924,40.8973017 C25.3375091,41.1792829 25.1727439,41.661178 25.2962707,42.1134684 C25.2672178,42.2197585 25.2536631,42.3296885 25.2560302,42.4398658 L25.2560302,67.603787 C25.2560934,68.2359213 25.7685236,68.7483504 26.4006577,68.7484145 L67.6072466,68.7484145 C68.2393809,68.7483504 68.75181,68.2359213 68.7518741,67.603787 L68.7518741,42.4398658 C68.7540169,42.2784962 68.7220222,42.1185139 68.6579689,41.9703899 C68.7265778,41.5499499 68.5560283,41.1261905 68.2153185,40.8704762 L67.4283871,40.2847474 C68.2349145,38.8290582 68.7339813,37.1804375 68.733979,35.4021969 C68.7339996,29.8134377 64.193331,25.2525697 58.6156619,25.2525697 C55.7983262,25.2525697 53.2503442,26.421007 51.4125577,28.2929865 L47.6478047,25.480601 C47.4321202,25.3184309 47.1660813,25.2376687 46.8966429,25.2525697 Z M58.6156619,27.5418247 C60.7543481,27.5418247 62.6825051,28.399908 64.0928831,29.7863678 L64.0750269,29.7863678 C64.0981026,29.8089856 64.1326932,29.8171285 64.1555171,29.840021 C64.1621559,29.8467743 64.1667344,29.8556109 64.1733733,29.8623871 C65.5766843,31.2814571 66.4447469,33.2349019 66.4447446,35.402206 C66.4447515,39.7575137 62.9524289,43.258105 58.6156711,43.258105 C54.2789133,43.258105 50.7821198,39.7575137 50.7821267,35.402206 C50.7821107,31.0468883 54.2789042,27.5418247 58.6156619,27.5418247 Z M46.9681821,27.8279815 L49.5838345,29.7863678 L44.3570006,29.7863678 L46.9681821,27.8279815 Z M58.597776,30.2156031 C57.9656097,30.2254698 57.4611426,30.7459497 57.4710345,31.3781151 L57.4710345,34.2575694 L54.5915798,34.2575694 C53.0436748,34.2355925 53.0436748,36.5687165 54.5915798,36.5468244 L57.4710345,36.5468244 L57.4710345,39.4262768 C57.4490576,40.9741817 59.7821816,40.9741817 59.7602894,39.4262768 L59.7602894,36.5468244 L62.6397418,36.5468244 C64.1876468,36.5688012 64.1876468,34.2356772 62.6397418,34.2575694 L59.7602894,34.2575694 L59.7602894,31.3781151 C59.7703622,30.7319352 59.2439571,30.2054912 58.597776,30.2156031 Z M32.1237947,32.0756228 L49.096475,32.0756228 C48.8440228,32.7972941 48.6835598,33.5534083 48.6001714,34.3380504 L38.9915592,34.3380504 L38.9915592,36.7703839 L48.6314701,36.7703839 C48.7367071,37.5392301 48.9089964,38.2835013 49.176956,38.9880996 L36.7023042,38.9880996 L36.7023042,41.4204331 L50.5138443,41.4204331 C51.1216186,42.2391004 51.8431597,42.9631986 52.6644918,43.5666096 L41.2808142,43.5666096 L41.2808142,45.998943 L52.7270892,45.998943 L52.7270892,43.6202652 C54.3901436,44.821435 56.4159672,45.5473509 58.6156619,45.5473509 C58.9129927,45.5473509 59.1921673,45.4832975 59.4830744,45.4579326 L46.9637112,53.2825352 L32.1237947,44.0316191 L32.1237947,32.0756228 Z M29.8345397,40.6692713 L29.8345397,42.6053011 L28.4261115,41.7289468 L29.8345397,40.6692713 Z M66.4626191,43.8035841 L66.4626191,65.4799673 L54.5200405,57.5033445 C53.4009611,56.8572435 52.0792758,58.7320311 53.2502206,59.4080756 L63.8067262,66.4591595 L30.1788224,66.4591595 L40.7532142,59.4080756 C41.9260499,58.7309391 40.9096619,56.6798926 39.4833919,57.5033445 L27.5452847,65.4665523 L27.5452847,43.8751234 L30.3755552,45.636776 L46.1544229,55.4734186 L46.3511615,55.5986179 L46.4361157,55.6522781 L46.4406942,55.6522781 C46.7654136,55.8164177 47.1488226,55.8164177 47.473542,55.6522781 L47.4959767,55.6522781 L63.6057136,45.5876028 L63.6325437,45.5697466 L63.6371222,45.5697466 L66.4626191,43.8035841 Z" id="Shape" fill="#FFFFFF" fill-rule="nonzero"></path>
			</g>
		</g>
	</g>
</svg>