
<svg width="21px" height="14px" viewBox="0 0 21 14" version="1.1" xmlns="http://www.w3.org/2000/svg" xmlns:xlink="http://www.w3.org/1999/xlink">
	<!-- Generator: Sketch 48.2 (47327) - http://www.bohemiancoding.com/sketch -->
	<desc>Created with Sketch.</desc>
	<defs></defs>
	<g id="Page-1" stroke="none" stroke-width="1" fill="none" fill-rule="evenodd">
		<g id="noun_337801" fill="#000000" fill-rule="nonzero">
			<path d="M9.599609,0 L0.5,0.021484 C0.416110837,0.0211956595 0.333497246,0.0420170119 0.2597656,0.082031 C0.244987521,0.0904098639 0.230646024,0.0995363653 0.2167969,0.109375 C0.203306759,0.118498741 0.190270388,0.12827606 0.1777344,0.138672 C0.165439948,0.149800478 0.153706683,0.161533643 0.1425781,0.173828 C0.119185425,0.197714801 0.0982473189,0.223887434 0.0800781,0.251953 C0.0709046066,0.265844434 0.0624305208,0.280185292 0.0546875,0.294922 C0.0319785977,0.339819148 0.0161756408,0.387886433 0.0078125,0.4375 C0.00505971834,0.453670049 0.00310422079,0.469965751 0.0019531,0.486328 C0.000889565141,0.498020105 0.000238128076,0.509746039 0,0.521484 L0,11.910156 C2.76089527e-05,12.1862869 0.223869062,12.4101284 0.5,12.410156 L13.455078,12.410156 C14.25426,13.185321 15.338772,13.667969 16.535156,13.667969 C18.980603,13.667969 20.972668,11.671103 20.972656,9.220703 C20.972663,7.771821 20.266317,6.492973 19.191406,5.679688 L19.191406,0.585938 C19.2129386,0.442380811 19.1710252,0.296551727 19.0765544,0.186335633 C18.9820836,0.0761195387 18.8443805,0.0123957331 18.699219,0.011719 L9.599609,0 Z M2.2441406,1.021484 L16.941406,1.021484 L9.599609,5.615234 L2.2441406,1.021484 Z M18.191406,1.417969 L18.191406,5.101562 C17.752228,4.923097 17.276407,4.824785 16.78125,4.796875 C16.699539,4.786667 16.619059,4.769645 16.535156,4.769531 C15.006562,4.769406 13.655911,5.550491 12.857422,6.734375 C12.857139,6.734794 12.857705,6.735909 12.857422,6.736328 C12.698131,6.972696 12.559507,7.224758 12.447266,7.490234 C12.447041,7.490765 12.44749,7.491657 12.447266,7.492188 C12.335147,7.757682 12.246598,8.035642 12.1875,8.324219 C12.187373,8.324836 12.187626,8.325555 12.1875,8.326172 C12.128525,8.614784 12.09763,8.913075 12.097656,9.21875 C12.097656,9.219412 12.097656,9.220041 12.097656,9.220703 C12.097656,9.22408 12.099602,9.227093 12.099609,9.230469 C12.100629,9.44525 12.123683,9.654909 12.162109,9.861328 C12.24361,10.419185 12.428389,10.939067 12.697266,11.410156 L1,11.410156 L1,1.421875 L9.335938,6.628906 C9.49790686,6.72993592 9.70326514,6.72993592 9.865234,6.628906 L18.191406,1.417969 Z M16.535156,5.771484 C16.749592,5.771484 16.95676,5.796614 17.160156,5.833984 C17.214709,5.844221 17.268327,5.858215 17.322266,5.871094 C17.465627,5.904747 17.604491,5.949048 17.740234,6 C17.806813,6.025275 17.874455,6.046748 17.939453,6.076172 C18.105465,6.150665 18.265319,6.23707 18.416016,6.335938 C18.4317688,6.34595666 18.4480704,6.35508528 18.464844,6.363281 C19.375706,6.982297 19.972662,8.028556 19.972656,9.220703 C19.972666,11.132203 18.438546,12.667969 16.535156,12.667969 C15.543014,12.667969 14.657757,12.246423 14.03125,11.576172 C14.014182,11.557912 14.001046,11.53621 13.984375,11.517578 C13.855655,11.374129 13.736737,11.223432 13.634766,11.0625 C13.620675,11.040156 13.611245,11.014879 13.597656,10.992188 C13.502436,10.833911 13.416168,10.670929 13.347656,10.5 C13.322173,10.435829 13.30685,10.366813 13.285156,10.300781 C13.23902,10.161809 13.192276,10.023218 13.164062,9.878906 C13.126038,9.680252 13.104266,9.475133 13.101562,9.265625 C13.101365,9.250302 13.097656,9.236076 13.097656,9.220703 C13.097655,9.22005 13.097657,9.219404 13.097656,9.21875 C13.097788,8.97985 13.122185,8.746419 13.167969,8.521484 C13.213492,8.297092 13.280765,8.08099 13.367188,7.875 C13.367411,7.874467 13.366963,7.87358 13.367188,7.873047 C13.453732,7.667078 13.560661,7.4721 13.683594,7.289062 C13.683875,7.288644 13.683312,7.287528 13.683594,7.287109 C14.30044,6.370639 15.346081,5.771484 16.535156,5.771484 Z M16.529297,6.927734 C16.2531579,6.93097843 16.0319283,7.15745471 16.035156,7.433594 L16.035156,9.828125 C16.0326066,10.0084425 16.1273446,10.1761644 16.2830931,10.2670671 C16.4388415,10.3579698 16.6314705,10.3579698 16.7872189,10.2670671 C16.9429674,10.1761644 17.0377054,10.0084425 17.035156,9.828125 L17.035156,7.433594 C17.0367297,7.29895551 16.9839395,7.16937184 16.8887293,7.07416145 C16.7935191,6.97895107 16.6639355,6.92616062 16.529297,6.927734 Z M16.484375,10.505859 C16.3057422,10.5149302 16.1455181,10.6186117 16.0640575,10.7778478 C15.982597,10.9370839 15.9922758,11.1276829 16.089448,11.2778478 C16.1866203,11.4280128 16.3565232,11.5149302 16.535156,11.505859 C16.7154735,11.5084084 16.8831954,11.4136704 16.9740981,11.2579219 C17.0650008,11.1021735 17.0650008,10.9095445 16.9740981,10.7537961 C16.8831954,10.5980476 16.7154735,10.5033096 16.535156,10.505859 C16.5182399,10.504999 16.5012911,10.504999 16.484375,10.505859 Z" id="Shape"></path>
		</g>
	</g>
</svg>